<?xml version="1.0" ?><svg height="256" viewBox="0 0 256 256" width="256" xmlns="http://www.w3.org/2000/svg"><title/><g id="bottle-drink-energy-water"><g><path d="M183.47,182.64a2,2,0,0,0,.53-1.35V166.81a2.033,2.033,0,0,0-.52-1.35L176,157.23V120.32l7.83-17.5a2.106,2.106,0,0,0,.13-1.24l-2.26-10.6a81.349,81.349,0,0,0-3.43-11.7,82.178,82.178,0,0,0-25.48-35.19L144,37.04V32h2a6,6,0,0,0,6-6V14a6,6,0,0,0-6-6H110a6,6,0,0,0-6,6V26a6,6,0,0,0,6,6h2v5.04l-8.79,7.05A82.236,82.236,0,0,0,74.3,90.98l-2.26,10.6a2.106,2.106,0,0,0,.13,1.24L80,120.32v36.91l-7.48,8.23a2.033,2.033,0,0,0-.52,1.35v14.48a2,2,0,0,0,.53,1.35L80,190.76v26.91l-7.52,8.82a1.982,1.982,0,0,0-.48,1.29V246a2.006,2.006,0,0,0,2,2H90a1.992,1.992,0,0,0,1.94-1.51L93.56,240H102v6a2.006,2.006,0,0,0,2,2h16a2.006,2.006,0,0,0,2-2v-6h12v6a2.006,2.006,0,0,0,2,2h16a2.006,2.006,0,0,0,2-2v-6h8.44l1.62,6.49A1.992,1.992,0,0,0,166,248h16a2.006,2.006,0,0,0,2-2V227.78a1.982,1.982,0,0,0-.48-1.29L176,217.67V190.76ZM154,222a2.006,2.006,0,0,1-2-2V180a2,2,0,0,1,4,0v40A2.006,2.006,0,0,1,154,222Zm-28-2V180a2,2,0,0,1,4,0v40a2,2,0,0,1-4,0Zm-26,0V180a2,2,0,0,1,4,0v40a2,2,0,0,1-4,0Zm21-64H84V122h88v34ZM110,28a2.006,2.006,0,0,1-2-2V14a2.006,2.006,0,0,1,2-2h36a2.006,2.006,0,0,1,2,2V26a2.006,2.006,0,0,1-2,2H110Zm30,4v4H116V32ZM105.71,47.21,114.7,40h26.6l8.99,7.21A78.231,78.231,0,0,1,173.46,78H82.54A78.231,78.231,0,0,1,105.71,47.21Z"/><path d="M140,25a2.006,2.006,0,0,0,2-2V16a2,2,0,0,0-4,0v7A2.006,2.006,0,0,0,140,25Z"/><path d="M136.52,124.7a2,2,0,0,0-2.82-.22l-14,12A2,2,0,0,0,121,140h9.17l-10.58,10.59a1.994,1.994,0,1,0,2.82,2.82l14-14a1.986,1.986,0,0,0,.44-2.18A2.01,2.01,0,0,0,135,136h-8.59l9.89-8.48A2,2,0,0,0,136.52,124.7Z"/><path d="M132,25a2.006,2.006,0,0,0,2-2V16a2,2,0,0,0-4,0v7A2.006,2.006,0,0,0,132,25Z"/><path d="M124,25a2.006,2.006,0,0,0,2-2V16a2,2,0,0,0-4,0v7A2.006,2.006,0,0,0,124,25Z"/><path d="M116,25a2.006,2.006,0,0,0,2-2V16a2,2,0,0,0-4,0v7A2.006,2.006,0,0,0,116,25Z"/></g></g></svg>