<?xml version="1.0" ?><!DOCTYPE svg  PUBLIC '-//W3C//DTD SVG 1.1//EN'  'http://www.w3.org/Graphics/SVG/1.1/DTD/svg11.dtd'><svg height="512px" style="enable-background:new 0 0 512 512;" version="1.1" viewBox="0 0 512 512" width="512px" xml:space="preserve" xmlns="http://www.w3.org/2000/svg" xmlns:xlink="http://www.w3.org/1999/xlink"><g id="_x31_23_x2C__Cooking_bbq_x2C__camping_x2C__food_x2C__grill"><g><path d="M384.777,196.623c2.843-10.825,4.485-21.213,4.851-32.695H104.66    c0.33,11.081,2.008,22.016,4.812,32.695H384.777z M105.607,69.851c-1.965,0-3.751,0.802-5.029,2.077    c-1.274,1.276-2.078,3.063-2.078,5.031c0,1.967,0.804,3.754,2.078,5.065c1.278,1.276,3.064,2.077,5.029,2.077    c1.969,0,3.755-0.801,5.068-2.077c1.277-1.312,2.078-3.099,2.078-5.065c0-1.969-0.8-3.755-2.078-5.031    C109.363,70.652,107.576,69.851,105.607,69.851z M168.813,26.002c-1.969,0-3.755,0.801-5.029,2.077    c-1.277,1.275-2.078,3.062-2.078,5.03c0,1.968,0.8,3.754,2.078,5.029c1.274,1.313,3.061,2.115,5.029,2.115    s3.755-0.803,5.029-2.115c1.313-1.275,2.112-3.062,2.112-5.029c0-1.969-0.8-3.755-2.112-5.03    C172.569,26.803,170.782,26.002,168.813,26.002z M374.537,107.904c-1.934,0-3.721,0.802-5.033,2.078    c-1.273,1.275-2.077,3.062-2.077,5.029c0,1.969,0.804,3.754,2.077,5.03c1.313,1.313,3.064,2.114,5.033,2.114    s3.752-0.802,5.064-2.114c1.277-1.276,2.077-3.062,2.077-5.03c0-1.968-0.8-3.754-2.077-5.029    C378.289,108.706,376.506,107.904,374.537,107.904z M193.78,76.011c-2.113-1.239-2.878-3.974-1.639-6.087    c1.239-2.15,3.973-2.88,6.124-1.641l24.675,14.252c1.421,0.802,2.225,2.333,2.225,3.863v45.709c0,2.479-2.007,4.482-4.485,4.482    c-2.442,0-4.481-2.004-4.481-4.482V88.95L193.78,76.011z M248.128,76.011c-2.151-1.239-2.881-3.974-1.643-6.087    c1.242-2.15,3.976-2.88,6.089-1.641l24.675,14.252c1.421,0.802,2.225,2.333,2.225,3.863l0.035,45.709    c0,2.479-2.004,4.482-4.481,4.482s-4.485-2.004-4.485-4.482V88.95L248.128,76.011z M302.438,76.011    c-2.112-1.202-2.843-3.937-1.639-6.087c1.238-2.115,3.973-2.88,6.085-1.641l24.679,14.252c1.457,0.802,2.258,2.296,2.258,3.863    v45.709c0,2.479-2.004,4.482-4.482,4.482c-2.442,0-4.484-2.004-4.484-4.482V88.95L302.438,76.011z M251.918,342.387    l-0.326,113.358h116.42l-88.246-124.002v10.644H251.918z M214.486,331.852l-88.211,123.894h116.42l0.292-113.358h-28.5V331.852z     M65.915,464.712c-2.478,0-4.485-2.005-4.485-4.483s2.007-4.483,4.485-4.483h50.045l98.526-139.202v-9.112    c8.637,1.896,17.495,3.025,26.605,3.39l0.182,0.037h0.109h0.33h0.291h0.292l0.33,0.037h0.291h0.292h0.035h0.256l0.327,0.035h0.291    h0.292h0.33h0.292h0.147h0.144l0.291,0.037h0.33h0.291h0.292h0.326h0.292h0.295h0.291h0.327h0.291h0.292l0.291-0.037h0.183h0.147    h0.292h0.291h0.326h0.295l0.292-0.035h0.291h0.035h0.292h0.291l0.292-0.037h0.33h0.292h0.292h0.108l0.183-0.037    c9.114-0.364,18.007-1.494,26.609-3.39v8.967l98.561,139.348h50.011c2.478,0,4.481,2.005,4.481,4.483s-2.004,4.483-4.481,4.483    H65.915z M277.323,485.999c-2.478,0-4.481-2.042-4.481-4.483c0-2.479,2.004-4.483,4.481-4.483h168.766    c2.478,0,4.481,2.005,4.481,4.483c0,2.441-2.004,4.483-4.481,4.483H277.323z M139.471,76.011    c-2.151-1.202-2.878-3.937-1.639-6.087c1.2-2.115,3.934-2.88,6.085-1.641l24.675,14.252c1.425,0.802,2.225,2.296,2.225,3.863    l0.035,45.709c0,2.479-2.004,4.482-4.481,4.482c-2.478,0-4.485-2.004-4.485-4.482V88.95L139.471,76.011z M247.142,302h0.295h0.291    h0.292h0.291h0.292l0.291-0.037h0.074h0.218h0.292h0.291h0.874l0.183-0.035h0.112c37.832-0.985,72.022-16.731,96.992-41.699    c15.234-15.2,27.01-33.826,34.116-54.639H112.205c7.146,20.813,18.92,39.438,34.12,54.639    c24.966,24.968,59.156,40.714,97.027,41.699h0.109l0.183,0.035h0.877h0.291h0.292h0.183h0.109l0.291,0.037h0.292h0.291h0.292    h0.291H247.142z" style="fill-rule:evenodd;clip-rule:evenodd;"/></g></g><g id="Layer_1"/></svg>